<?xml version="1.0"?>
<svg xmlns="http://www.w3.org/2000/svg" xmlns:xlink="http://www.w3.org/1999/xlink" version="1.1" id="Capa_1" x="0px" y="0px" viewBox="0 0 463 463" style="enable-background:new 0 0 463 463;" xml:space="preserve" width="512px" height="512px"><g><g>
	<path d="M167.5,351h128c4.142,0,7.5-3.358,7.5-7.5v-224c0-4.142-3.358-7.5-7.5-7.5h-128c-4.142,0-7.5,3.358-7.5,7.5v224   C160,347.642,163.358,351,167.5,351z M288,239v17H175v-17H288z M175,224v-17h113v17H175z M288,271v17H175v-17H288z M288,192H175   v-17h113V192z M175,336v-33h113v33H175z M288,127v33H175v-33H288z" data-original="#000000" class="active-path" data-old_color="#FBF9F9" fill="#FCFBFB"/>
	<path d="M279.5,0h-96C117.607,0,64,53.607,64,119.5v224C64,409.393,117.607,463,183.5,463h96c65.893,0,119.5-53.607,119.5-119.5   v-224C399,53.607,345.393,0,279.5,0z M279.5,15c28.539,0,54.438,11.504,73.316,30.112L341.25,57.567   C325.414,41.776,303.577,32,279.5,32h-96c-24.127,0-46.005,9.816-61.85,25.664l-11.565-12.455C128.971,26.544,154.911,15,183.5,15   H279.5z M143,351.5v-240c0-13.509,10.991-24.5,24.5-24.5h128c13.509,0,24.5,10.991,24.5,24.5v240c0,13.509-10.991,24.5-24.5,24.5   h-128C153.991,376,143,365.009,143,351.5z M319.947,80.509C313.216,75.188,304.726,72,295.5,72h-128   c-9.276,0-17.809,3.222-24.557,8.596l-11.075-11.927C145.026,55.305,163.308,47,183.5,47h96c20.141,0,38.384,8.262,51.536,21.568   L319.947,80.509z M133.129,92.072C129.871,97.813,128,104.44,128,111.5v240c0,6.634,1.652,12.887,4.554,18.382l-10.774,11.603   C114.952,370.43,111,357.42,111,343.5v-224c0-14.338,4.201-27.706,11.412-38.97L133.129,92.072z M142.063,381.686   C148.94,387.491,157.816,391,167.5,391h128c9.634,0,18.469-3.471,25.332-9.223l10.988,11.833   C318.614,407.392,300.049,416,279.5,416h-96c-20.599,0-39.205-8.65-52.416-22.491L142.063,381.686z M330.379,370.014   c2.945-5.526,4.621-11.827,4.621-18.514v-240c0-7.112-1.899-13.785-5.202-19.555l10.712-11.536   C347.769,91.698,352,105.11,352,119.5v224c0,13.971-3.983,27.025-10.858,38.106L330.379,370.014z M79,119.5   c0-23.619,7.881-45.43,21.145-62.95l11.776,12.682C101.896,83.465,96,100.806,96,119.5v224c0,18.278,5.637,35.263,15.26,49.314   l-11.805,12.714C86.608,388.167,79,366.706,79,343.5V119.5z M279.5,448h-96c-28.996,0-55.268-11.874-74.219-31.011l11.575-12.466   C136.761,420.845,158.965,431,183.5,431h96c24.485,0,46.649-10.113,62.546-26.377l11.575,12.466   C334.678,436.168,308.446,448,279.5,448z M384,343.5c0,23.257-7.64,44.761-20.538,62.142l-11.803-12.711   C361.33,378.857,367,361.829,367,343.5v-224c0-18.745-5.927-36.13-16.003-50.385l11.772-12.677C376.085,73.977,384,95.83,384,119.5   V343.5z" data-original="#000000" class="active-path" data-old_color="#FBF9F9" fill="#FCFBFB"/>
</g></g> </svg>
